<?xml version="1.0" encoding="UTF-8" standalone="no"?>
<!-- Created with Inkscape (http://www.inkscape.org/) -->

<svg
   width="1746.0018"
   height="476.1561"
   viewBox="0 0 1746.0019 476.1561"
   version="1.1"
   id="svg1"
   sodipodi:docname="promptile-full-icon-std.svg"
   inkscape:version="1.3.1 (91b66b0783, 2023-11-16)"
   inkscape:export-filename="promptile-full-icon-std.png"
   inkscape:export-xdpi="96"
   inkscape:export-ydpi="96"
   xmlns:inkscape="http://www.inkscape.org/namespaces/inkscape"
   xmlns:sodipodi="http://sodipodi.sourceforge.net/DTD/sodipodi-0.dtd"
   xmlns="http://www.w3.org/2000/svg"
   xmlns:svg="http://www.w3.org/2000/svg">
  <sodipodi:namedview
     id="namedview1"
     pagecolor="#ffffff"
     bordercolor="#666666"
     borderopacity="1.0"
     inkscape:showpageshadow="2"
     inkscape:pageopacity="0.0"
     inkscape:pagecheckerboard="0"
     inkscape:deskcolor="#d1d1d1"
     inkscape:export-bgcolor="#ffffffff"
     inkscape:zoom="0.37457005"
     inkscape:cx="344.39486"
     inkscape:cy="360.41323"
     inkscape:window-width="1920"
     inkscape:window-height="974"
     inkscape:window-x="-11"
     inkscape:window-y="-11"
     inkscape:window-maximized="1"
     inkscape:current-layer="svg1" />
  <defs
     id="defs1" />
  <rect
     style="fill:#ffffff;stroke-width:1.134;stroke-linejoin:round;fill-opacity:1;stroke-dasharray:none"
     id="rect4"
     width="1746.0018"
     height="476.1561"
     x="0"
     y="0"
     ry="0" />
  <g
     id="layer1"
     transform="translate(-3.2383845,-17.921951)">
    <g
       id="g3"
       transform="translate(-1.9540253,-6.4561081)"
       style="fill:#202834;fill-opacity:1">
      <rect
         style="fill:#202834;fill-opacity:1;stroke-width:8.56063;stroke-linecap:round"
         id="rect1"
         width="168.04597"
         height="331.02637"
         x="87.954025"
         y="101.42972" />
      <rect
         style="fill:#202834;fill-opacity:1;stroke-width:8.56063;stroke-linecap:round"
         id="rect2"
         width="340"
         height="198.41641"
         x="87.954025"
         y="92.456116" />
      <rect
         style="fill:#202834;fill-opacity:1;stroke-width:8.56063;stroke-linecap:round"
         id="rect3"
         width="135.797"
         height="102.95802"
         x="292.15698"
         y="329.49808"
         ry="0" />
    </g>
    <path
       style="font-weight:bold;font-size:266.667px;line-height:1.25;font-family:'Glacial Indifference';-inkscape-font-specification:'Glacial Indifference Bold';letter-spacing:0px;word-spacing:0px;fill:#202834"
       d="m 552.34348,257.86667 h 28.00004 c 29.33337,0 55.46673,-21.60003 55.46673,-58.40007 0,-34.40004 -26.13336,-58.13341 -55.46673,-58.13341 h -28.00004 -9.86668 -30.13337 v 181.33356 h 40.00005 z m 21.33336,-85.06677 c 11.73335,0 24.00003,10.13334 24.00003,26.6667 0,17.33335 -12.26668,26.93336 -24.00003,26.93336 H 552.34348 V 172.7999 Z m 148.53355,61.86674 c 6.13334,0 12.00001,1.86667 16.00002,6.66668 h 0.53333 V 205.0666 c -3.2,-1.6 -8.53334,-2.66667 -12.00001,-2.66667 -14.66669,0 -24.80003,8.26668 -30.93337,17.06669 V 205.0666 h -40.00005 v 117.60015 h 40.00005 v -58.66674 c 0,-14.13335 11.46668,-29.33337 26.40003,-29.33337 z m 95.73359,60.26674 c -21.60003,0 -27.4667,-15.73335 -27.4667,-30.6667 0,-14.66669 6.40001,-30.40004 27.4667,-30.40004 20.80003,0 27.20003,15.73335 27.20003,30.40004 0,14.93335 -5.86667,30.6667 -27.20003,30.6667 z m 0,-92.26678 c -36.80005,0 -67.20008,24.53336 -67.20008,61.33341 0,37.60005 29.60003,61.06674 67.20008,61.06674 37.33338,0 66.93341,-23.46669 66.93341,-61.06674 0,-36.80005 -30.40003,-61.33341 -66.93341,-61.33341 z m 210.93362,60.26674 c 0,-13.33335 6.1333,-28.2667 21.6,-28.2667 13.3333,0 17.0667,11.46668 17.0667,22.93336 v 65.06675 h 40 V 257.6 c 0,-30.40004 -14.6667,-55.20007 -45.3334,-55.20007 -18.4,0 -31.4667,5.33334 -42.9334,20.00003 -8.2666,-13.33335 -21.59998,-20.00003 -36.53333,-20.00003 -13.06669,0 -24.53337,6.93335 -32.53338,17.06669 V 205.0666 h -40.00005 v 117.60015 h 40.00005 v -58.66674 c 0,-11.73335 8.00001,-29.33337 21.60003,-29.33337 13.33335,0 17.06669,11.46668 17.06669,22.93336 v 65.06675 h 40.00009 z m 146.6666,1.06667 c 0,-15.46669 12,-29.33337 28.0001,-29.33337 16,0 28,13.86668 28,29.33337 0,15.46669 -12,29.33337 -28,29.33337 -16.0001,0 -28.0001,-13.86668 -28.0001,-29.33337 z m 0,125.33349 v -80.8001 c 8,12.00001 25.0667,16.80002 40.2667,16.80002 33.3334,0 58.4001,-28.80004 58.4001,-61.33341 0,-32.53337 -25.0667,-61.60008 -58.4001,-61.60008 -15.2,0 -29.8667,4.26668 -40.2667,17.06669 V 205.0666 h -40 v 184.2669 z m 174.4002,-153.33352 h 21.3333 V 205.0666 h -21.3333 v -44.80005 h -39.7334 v 44.80005 h -21.3334 v 30.93338 h 21.3334 v 86.66677 h 39.7334 z m 40.5336,-71.20009 c 0,12.80001 10.4,23.46669 23.4667,23.46669 12.8,0 23.4667,-10.66668 23.4667,-23.46669 0,-13.06668 -10.6667,-23.4667 -23.4667,-23.4667 -13.0667,0 -23.4667,10.40002 -23.4667,23.4667 z m 43.4667,157.86686 V 205.0666 h -40 v 117.60015 z m 73.3336,0 V 122.6665 h -40.0001 v 200.00025 z m 68.2669,-72.80009 c 0,0 1.3333,-21.86669 26.4,-21.86669 24.2667,0 26.1334,21.86669 26.1334,21.86669 z m 90.9334,11.46668 c 0,-37.60005 -29.6,-58.93341 -65.3334,-58.93341 -39.4667,0 -68.5334,24.80003 -68.5334,61.60008 0,37.33338 28.0001,61.33341 68.5334,61.33341 31.2001,0 56.2668,-15.46669 63.2001,-46.40006 h -40.8 c -0.2667,8.53335 -9.0667,17.86669 -23.2001,17.86669 -15.7333,0 -25.3333,-14.40002 -25.3333,-28.00003 h 91.2001 c 0,-2.40001 0.2666,-5.06668 0.2666,-7.46668 z"
       id="text1"
       aria-label="Promptile" />
  </g>
</svg>
